<mxfile host="app.diagrams.net" agent="Mozilla/5.0 (Macintosh; Intel Mac OS X 10_15_7) AppleWebKit/537.36 (KHTML, like Gecko) Chrome/128.0.0.0 Safari/537.36" version="24.7.10">
  <diagram name="第 1 页" id="WNg9zB755kOoIzIcRmzf">
    <mxGraphModel dx="1242" dy="821" grid="1" gridSize="10" guides="1" tooltips="1" connect="1" arrows="1" fold="1" page="0" pageScale="1" pageWidth="827" pageHeight="1169" math="0" shadow="0">
      <root>
        <mxCell id="0" />
        <mxCell id="1" parent="0" />
        <mxCell id="S2qpZK_h2ZdgiMT081pO-7" style="rounded=0;orthogonalLoop=1;jettySize=auto;html=1;exitX=0.25;exitY=1;exitDx=0;exitDy=0;entryX=0.5;entryY=0;entryDx=0;entryDy=0;" edge="1" parent="1" source="S2qpZK_h2ZdgiMT081pO-1" target="S2qpZK_h2ZdgiMT081pO-4">
          <mxGeometry relative="1" as="geometry" />
        </mxCell>
        <mxCell id="S2qpZK_h2ZdgiMT081pO-8" style="edgeStyle=orthogonalEdgeStyle;rounded=0;orthogonalLoop=1;jettySize=auto;html=1;exitX=0.5;exitY=1;exitDx=0;exitDy=0;entryX=0.5;entryY=0;entryDx=0;entryDy=0;" edge="1" parent="1" source="S2qpZK_h2ZdgiMT081pO-1" target="S2qpZK_h2ZdgiMT081pO-5">
          <mxGeometry relative="1" as="geometry" />
        </mxCell>
        <mxCell id="S2qpZK_h2ZdgiMT081pO-9" style="rounded=0;orthogonalLoop=1;jettySize=auto;html=1;exitX=0.75;exitY=1;exitDx=0;exitDy=0;entryX=0.5;entryY=0;entryDx=0;entryDy=0;" edge="1" parent="1" source="S2qpZK_h2ZdgiMT081pO-1" target="S2qpZK_h2ZdgiMT081pO-6">
          <mxGeometry relative="1" as="geometry" />
        </mxCell>
        <mxCell id="S2qpZK_h2ZdgiMT081pO-1" value="&lt;font style=&quot;font-size: 25px;&quot;&gt;租户管理平台&lt;/font&gt;" style="rounded=0;whiteSpace=wrap;html=1;" vertex="1" parent="1">
          <mxGeometry x="170" y="120" width="180" height="70" as="geometry" />
        </mxCell>
        <mxCell id="S2qpZK_h2ZdgiMT081pO-11" style="edgeStyle=orthogonalEdgeStyle;rounded=0;orthogonalLoop=1;jettySize=auto;html=1;exitX=0.5;exitY=1;exitDx=0;exitDy=0;" edge="1" parent="1" source="S2qpZK_h2ZdgiMT081pO-2" target="S2qpZK_h2ZdgiMT081pO-10">
          <mxGeometry relative="1" as="geometry" />
        </mxCell>
        <mxCell id="S2qpZK_h2ZdgiMT081pO-15" value="驱动" style="edgeLabel;html=1;align=center;verticalAlign=middle;resizable=0;points=[];" vertex="1" connectable="0" parent="S2qpZK_h2ZdgiMT081pO-11">
          <mxGeometry x="-0.0207" relative="1" as="geometry">
            <mxPoint as="offset" />
          </mxGeometry>
        </mxCell>
        <mxCell id="S2qpZK_h2ZdgiMT081pO-2" value="&lt;font style=&quot;font-size: 20px;&quot;&gt;A租户系统&lt;/font&gt;" style="rounded=0;whiteSpace=wrap;html=1;" vertex="1" parent="1">
          <mxGeometry x="890" y="125" width="120" height="60" as="geometry" />
        </mxCell>
        <mxCell id="S2qpZK_h2ZdgiMT081pO-4" value="&lt;font style=&quot;font-size: 20px;&quot;&gt;租户分发&lt;/font&gt;" style="rounded=0;whiteSpace=wrap;html=1;" vertex="1" parent="1">
          <mxGeometry y="330" width="120" height="60" as="geometry" />
        </mxCell>
        <mxCell id="S2qpZK_h2ZdgiMT081pO-5" value="&lt;font style=&quot;font-size: 20px;&quot;&gt;租户的权限管理&lt;/font&gt;" style="rounded=0;whiteSpace=wrap;html=1;" vertex="1" parent="1">
          <mxGeometry x="200" y="330" width="120" height="60" as="geometry" />
        </mxCell>
        <mxCell id="S2qpZK_h2ZdgiMT081pO-6" value="&lt;font style=&quot;font-size: 20px;&quot;&gt;租户的应用分发&lt;/font&gt;" style="rounded=0;whiteSpace=wrap;html=1;" vertex="1" parent="1">
          <mxGeometry x="450" y="330" width="120" height="60" as="geometry" />
        </mxCell>
        <mxCell id="S2qpZK_h2ZdgiMT081pO-17" style="edgeStyle=orthogonalEdgeStyle;rounded=0;orthogonalLoop=1;jettySize=auto;html=1;exitX=0.25;exitY=1;exitDx=0;exitDy=0;entryX=0.5;entryY=1;entryDx=0;entryDy=0;" edge="1" parent="1" source="S2qpZK_h2ZdgiMT081pO-10" target="S2qpZK_h2ZdgiMT081pO-6">
          <mxGeometry relative="1" as="geometry">
            <Array as="points">
              <mxPoint x="920" y="460" />
              <mxPoint x="510" y="460" />
            </Array>
          </mxGeometry>
        </mxCell>
        <mxCell id="S2qpZK_h2ZdgiMT081pO-18" style="edgeStyle=orthogonalEdgeStyle;rounded=0;orthogonalLoop=1;jettySize=auto;html=1;exitX=0.5;exitY=1;exitDx=0;exitDy=0;entryX=0.5;entryY=1;entryDx=0;entryDy=0;" edge="1" parent="1" source="S2qpZK_h2ZdgiMT081pO-10" target="S2qpZK_h2ZdgiMT081pO-5">
          <mxGeometry relative="1" as="geometry">
            <Array as="points">
              <mxPoint x="950" y="520" />
              <mxPoint x="260" y="520" />
            </Array>
          </mxGeometry>
        </mxCell>
        <mxCell id="S2qpZK_h2ZdgiMT081pO-19" style="edgeStyle=orthogonalEdgeStyle;rounded=0;orthogonalLoop=1;jettySize=auto;html=1;exitX=0.75;exitY=1;exitDx=0;exitDy=0;entryX=0.5;entryY=1;entryDx=0;entryDy=0;" edge="1" parent="1" source="S2qpZK_h2ZdgiMT081pO-10" target="S2qpZK_h2ZdgiMT081pO-4">
          <mxGeometry relative="1" as="geometry">
            <Array as="points">
              <mxPoint x="980" y="560" />
              <mxPoint x="60" y="560" />
            </Array>
          </mxGeometry>
        </mxCell>
        <mxCell id="S2qpZK_h2ZdgiMT081pO-10" value="&lt;font style=&quot;font-size: 12px;&quot;&gt;玉衡框架SDK&lt;/font&gt;" style="rounded=1;whiteSpace=wrap;html=1;" vertex="1" parent="1">
          <mxGeometry x="890" y="330" width="120" height="60" as="geometry" />
        </mxCell>
        <mxCell id="S2qpZK_h2ZdgiMT081pO-26" style="edgeStyle=orthogonalEdgeStyle;rounded=0;orthogonalLoop=1;jettySize=auto;html=1;exitX=0.5;exitY=1;exitDx=0;exitDy=0;entryX=0.5;entryY=0;entryDx=0;entryDy=0;" edge="1" parent="1" source="S2qpZK_h2ZdgiMT081pO-20" target="S2qpZK_h2ZdgiMT081pO-25">
          <mxGeometry relative="1" as="geometry" />
        </mxCell>
        <mxCell id="S2qpZK_h2ZdgiMT081pO-20" value="&lt;font style=&quot;font-size: 25px;&quot;&gt;工作台&lt;/font&gt;" style="rounded=0;whiteSpace=wrap;html=1;" vertex="1" parent="1">
          <mxGeometry x="95" y="962" width="120" height="60" as="geometry" />
        </mxCell>
        <mxCell id="S2qpZK_h2ZdgiMT081pO-23" style="edgeStyle=orthogonalEdgeStyle;rounded=0;orthogonalLoop=1;jettySize=auto;html=1;exitX=0.5;exitY=1;exitDx=0;exitDy=0;entryX=0.5;entryY=0;entryDx=0;entryDy=0;" edge="1" parent="1" source="S2qpZK_h2ZdgiMT081pO-21" target="S2qpZK_h2ZdgiMT081pO-22">
          <mxGeometry relative="1" as="geometry" />
        </mxCell>
        <mxCell id="S2qpZK_h2ZdgiMT081pO-24" value="新增" style="edgeLabel;html=1;align=center;verticalAlign=middle;resizable=0;points=[];" vertex="1" connectable="0" parent="S2qpZK_h2ZdgiMT081pO-23">
          <mxGeometry x="-0.0781" y="2" relative="1" as="geometry">
            <mxPoint as="offset" />
          </mxGeometry>
        </mxCell>
        <mxCell id="S2qpZK_h2ZdgiMT081pO-21" value="&lt;font style=&quot;font-size: 25px;&quot;&gt;玉衡平台&lt;/font&gt;" style="rounded=0;whiteSpace=wrap;html=1;" vertex="1" parent="1">
          <mxGeometry x="590" y="962" width="120" height="60" as="geometry" />
        </mxCell>
        <mxCell id="S2qpZK_h2ZdgiMT081pO-29" style="edgeStyle=orthogonalEdgeStyle;rounded=0;orthogonalLoop=1;jettySize=auto;html=1;exitX=0;exitY=0.5;exitDx=0;exitDy=0;" edge="1" parent="1" source="S2qpZK_h2ZdgiMT081pO-22" target="S2qpZK_h2ZdgiMT081pO-27">
          <mxGeometry relative="1" as="geometry" />
        </mxCell>
        <mxCell id="S2qpZK_h2ZdgiMT081pO-22" value="公司工作台应用读取范围" style="rounded=0;whiteSpace=wrap;html=1;" vertex="1" parent="1">
          <mxGeometry x="590" y="1150" width="120" height="60" as="geometry" />
        </mxCell>
        <mxCell id="S2qpZK_h2ZdgiMT081pO-28" style="edgeStyle=orthogonalEdgeStyle;rounded=0;orthogonalLoop=1;jettySize=auto;html=1;exitX=1;exitY=0.5;exitDx=0;exitDy=0;entryX=0.5;entryY=0;entryDx=0;entryDy=0;" edge="1" parent="1" source="S2qpZK_h2ZdgiMT081pO-25" target="S2qpZK_h2ZdgiMT081pO-27">
          <mxGeometry relative="1" as="geometry" />
        </mxCell>
        <mxCell id="S2qpZK_h2ZdgiMT081pO-25" value="获取当前用户的公司" style="rounded=0;whiteSpace=wrap;html=1;" vertex="1" parent="1">
          <mxGeometry x="95" y="1150" width="120" height="60" as="geometry" />
        </mxCell>
        <mxCell id="S2qpZK_h2ZdgiMT081pO-27" value="渲染当前公司的应用" style="rounded=1;whiteSpace=wrap;html=1;" vertex="1" parent="1">
          <mxGeometry x="320" y="1340" width="120" height="60" as="geometry" />
        </mxCell>
      </root>
    </mxGraphModel>
  </diagram>
</mxfile>
